# xmcd CD database file
#
# Track frame offsets:
#	150
#	18553
#	37562
#	51410
#	55408
#	68563
#	77406
#	84455
#	101641
#	120991
#	123766
#	159919
#
# Disc length: 2308 seconds
#
# Revision: 0
# Processed by: cddbd v1.4PL0 Copyright (c) Steve Scherf et al.
# Submitted via: CDex 1.50
#
DISCID=8409020c
DTITLE=Les Vomissures - Les Vomissures Régurgitent EP
DYEAR=2003
DGENRE=Jazz
TTITLE0=L e meilleur bonjour
TTITLE1=Les bons légumes (Pierre F. Brault)
TTITLE2=La bossa de Karine
TTITLE3=Bozo
TTITLE4=L'été de mes Gaëtan
TTITLE5=En amour avec toi
TTITLE6=L e tambourin magique
TTITLE7=Le chat de Catherine
TTITLE8=Le noël de Michel
TTITLE9=Godlada
TTITLE10=En ces temps-ci
TTITLE11=Égoût
EXTD=YEAR: 2003
EXTT0=
EXTT1=
EXTT2=
EXTT3=
EXTT4=
EXTT5=
EXTT6=
EXTT7=
EXTT8=
EXTT9=
EXTT10=
EXTT11=
PLAYORDER=
